# xmcd
#
# Track frame offsets: 
#        180
#        13159
#        24208
#        39238
#        53400
#        70360
#        90786
#        107295
#        120903
#        130963
#        143327
#        158557
#        175430
#        193453
#
# Disc length: 2673 seconds
#
# Revision: 0
# Processed by: cddbd v1.4PL0 Copyright (c) Steve Scherf et al.
# Submitted via: ExactAudioCopy v0.90b4
#
DISCID=a20a6f0e
DTITLE=John Fohl - I Got News for You
DYEAR=1998
DGENRE=Blues
TTITLE0=I Got News For You
TTITLE1=Taste Your Tears
TTITLE2=Police Dog Blues
TTITLE3=Gypsy Foot
TTITLE4=Is You Is Or Is You Ain't (My Baby?)
TTITLE5=Home To Stay
TTITLE6=Blame It On Cain
TTITLE7=Arlene
TTITLE8=Get Rhythm
TTITLE9=Malted Milk
TTITLE10=Slo-Mo Monkey
TTITLE11=Motherless Children
TTITLE12=Goodnight Irene
TTITLE13=Tea Leaf Rag
EXTD=
EXTT0=
EXTT1=
EXTT2=
EXTT3=
EXTT4=
EXTT5=
EXTT6=
EXTT7=
EXTT8=
EXTT9=
EXTT10=
EXTT11=
EXTT12=
EXTT13=
PLAYORDER=
